name rise30.6535peak61.5555fall82.9339.mot
datacolumns 19
datarows 26
range 10.69995600000000 10.74162400000000
endheader
time	ground_force1_vx	ground_force1_vy	ground_force1_vz	ground_force1_px	ground_force1_py	ground_force1_pz	ground_force2_vx	ground_force2_vy	ground_force2_vz	ground_force2_px	ground_force2_py	ground_force2_pz	ground_torque1_x	ground_torque1_y	ground_torque1_z	ground_torque2_x	ground_torque2_y	ground_torque2_z	
10.69995600000000	-55.31294600000000	826.21108400000003	60.17114100000000	0.11716600000000	0.00000000000000	0.11565500000000	0.00000000000000	0.00000000000000	0.00000000000000	0.00000000000000	0.00000000000000	0.00000000000000	0.00000000000000	25.13189800000000	0.00000000000000	0.00000000000000	0.00000000000000	0.00000000000000	
10.70162500000000	-55.85320300000000	824.99878899999999	60.15971000000000	0.11641300000000	0.00000000000000	0.11555300000000	0.00000000000000	0.00000000000000	0.00000000000000	0.00000000000000	0.00000000000000	0.00000000000000	0.00000000000000	25.10420800000000	0.00000000000000	0.00000000000000	0.00000000000000	0.00000000000000	
10.70329300000000	-56.40821300000000	823.65031199999999	60.12817900000000	0.11566000000000	0.00000000000000	0.11544800000000	0.00000000000000	0.00000000000000	0.00000000000000	0.00000000000000	0.00000000000000	0.00000000000000	0.00000000000000	25.07632200000000	0.00000000000000	0.00000000000000	0.00000000000000	0.00000000000000	
10.70495700000000	-56.97833600000000	822.16379500000005	60.07591600000000	0.11490700000000	0.00000000000000	0.11534000000000	-1.32724300000000	3.72330500000000	0.79129100000000	0.00000000000000	0.00000000000000	0.00000000000000	0.00000000000000	25.04829200000000	0.00000000000000	0.00000000000000	0.21617500000000	0.00000000000000	
10.70662200000000	-57.56385200000000	820.53742299999999	60.00231100000000	0.11415300000000	0.00000000000000	0.11522900000000	-2.14022400000000	7.03234000000000	1.36375100000000	0.00000000000000	0.00000000000000	0.00000000000000	0.00000000000000	25.02015500000000	0.00000000000000	0.00000000000000	0.38547400000000	0.00000000000000	
10.70828600000000	-58.16496600000000	818.76942699999995	59.90678000000000	0.11339900000000	0.00000000000000	0.11511500000000	-3.06290300000000	11.01153500000000	2.03173800000000	0.00000000000000	0.00000000000000	0.00000000000000	0.00000000000000	24.99194100000000	0.00000000000000	0.00000000000000	0.58531000000000	0.00000000000000	
10.70995500000000	-58.78179600000000	816.85807799999998	59.78877000000000	0.11264500000000	0.00000000000000	0.11499900000000	-4.06812800000000	15.61354900000000	2.78105400000000	0.00000000000000	0.00000000000000	0.00000000000000	0.00000000000000	24.96366700000000	0.00000000000000	0.00000000000000	0.81210300000000	0.00000000000000	
10.71162000000000	-59.41437600000000	814.80169000000001	59.64775600000000	0.11188900000000	0.00000000000000	0.11488000000000	-5.12168800000000	20.76097300000000	3.59230200000000	0.00000000000000	0.00000000000000	0.00000000000000	0.00000000000000	24.93533900000000	0.00000000000000	0.00000000000000	1.06071000000000	0.00000000000000	
10.71328700000000	-60.06264900000000	812.59861599999999	59.48324700000000	0.11113300000000	0.00000000000000	0.11475700000000	-6.18453000000000	26.35212900000000	4.44217100000000	0.36551800000000	0.00000000000000	-0.07276100000000	0.00000000000000	24.90695100000000	0.00000000000000	0.00000000000000	2.49846700000000	0.00000000000000	
10.71495400000000	-60.72646700000000	810.24725100000001	59.29478500000000	0.11037600000000	0.00000000000000	0.11463200000000	-7.21559100000000	32.26954300000000	5.30516300000000	0.36841500000000	0.00000000000000	-0.07295800000000	0.00000000000000	24.87848400000000	0.00000000000000	0.00000000000000	3.02524500000000	0.00000000000000	
10.71661800000000	-61.40558600000000	807.74603000000002	59.08194900000000	0.10961900000000	0.00000000000000	0.11450300000000	-8.17486000000000	38.38998000000000	6.15555200000000	0.37109700000000	0.00000000000000	-0.07315900000000	0.00000000000000	24.84990700000000	0.00000000000000	0.00000000000000	3.55687800000000	0.00000000000000	
10.71828600000000	-62.09966600000000	805.09343100000001	58.84435600000000	0.10886100000000	0.00000000000000	0.11437100000000	-9.02627500000000	44.59461100000000	6.96928700000000	0.37358900000000	0.00000000000000	-0.07336600000000	0.00000000000000	24.82117400000000	0.00000000000000	0.00000000000000	4.07966600000000	0.00000000000000	
10.71995200000000	-62.80826700000000	802.28797199999997	58.58166100000000	0.10810200000000	0.00000000000000	0.11423600000000	-9.74006700000000	50.77797900000000	7.72561700000000	0.37591300000000	0.00000000000000	-0.07357600000000	0.00000000000000	24.79222800000000	0.00000000000000	0.00000000000000	4.58140200000000	0.00000000000000	
10.72162000000000	-63.53085000000000	799.32821400000000	58.29356300000000	0.10734200000000	0.00000000000000	0.11409800000000	-10.29433500000000	56.85480000000000	8.40824400000000	0.37808800000000	0.00000000000000	-0.07379000000000	0.00000000000000	24.76299600000000	0.00000000000000	0.00000000000000	5.05209000000000	0.00000000000000	
10.72328800000000	-64.26677200000000	796.21276399999999	57.97980300000000	0.10658200000000	0.00000000000000	0.11395700000000	-10.67576600000000	62.76414900000000	9.00596000000000	0.38012900000000	0.00000000000000	-0.07400600000000	0.00000000000000	24.73339100000000	0.00000000000000	0.00000000000000	5.48439100000000	0.00000000000000	
10.72496000000000	-65.01528999999999	792.94027500000004	57.64016500000000	0.10582100000000	0.00000000000000	0.11381200000000	-10.87954700000000	68.47100399999999	9.51277200000000	0.38204900000000	0.00000000000000	-0.07422500000000	0.00000000000000	24.70331400000000	0.00000000000000	0.00000000000000	5.87378300000000	0.00000000000000	
10.72662500000000	-65.77555400000000	789.50944800000002	57.27448100000000	0.10506000000000	0.00000000000000	0.11366400000000	-10.90859900000000	73.96539500000000	9.92757300000000	0.38385900000000	0.00000000000000	-0.07444500000000	0.00000000000000	24.67264900000000	0.00000000000000	0.00000000000000	6.21845200000000	0.00000000000000	
10.72828500000000	-66.54661200000000	785.91903600000001	56.88263000000000	0.10429900000000	0.00000000000000	0.11351200000000	-10.77229800000000	79.25964300000000	10.25346900000000	0.38556900000000	0.00000000000000	-0.07466800000000	0.00000000000000	24.64126600000000	0.00000000000000	0.00000000000000	6.51899600000000	0.00000000000000	
10.72995400000000	-67.32740800000001	782.16784399999995	56.46453800000000	0.10353700000000	0.00000000000000	0.11335700000000	-10.48489700000000	84.38423600000000	10.49688200000000	0.38718600000000	0.00000000000000	-0.07489200000000	0.00000000000000	24.60902200000000	0.00000000000000	0.00000000000000	6.77796200000000	0.00000000000000	
10.73161800000000	-68.11678000000001	778.25473599999998	56.02018300000000	0.10277500000000	0.00000000000000	0.11319900000000	-10.06380500000000	89.38292700000000	10.66652900000000	0.38871900000000	0.00000000000000	-0.07511700000000	0.00000000000000	24.57575800000000	0.00000000000000	0.00000000000000	6.99931800000000	0.00000000000000	
10.73329200000000	-68.91346700000000	774.17863399999999	55.54959200000000	0.10201300000000	0.00000000000000	0.11303700000000	-9.52791400000000	94.30758200000000	10.77239300000000	0.39017200000000	0.00000000000000	-0.07534200000000	0.00000000000000	24.54130100000000	0.00000000000000	0.00000000000000	7.18789200000000	0.00000000000000	
10.73495600000000	-69.71610200000001	769.93852500000003	55.05284400000000	0.10125100000000	0.00000000000000	0.11287200000000	-8.89608700000000	99.21326600000000	10.82476800000000	0.39155200000000	0.00000000000000	-0.07556900000000	0.00000000000000	24.50546300000000	0.00000000000000	0.00000000000000	7.34883900000000	0.00000000000000	
10.73662200000000	-70.52321999999999	765.53346299999998	54.53007300000000	0.10049000000000	0.00000000000000	0.11270300000000	-8.18590500000000	104.15388700000000	10.83344800000000	0.39286200000000	0.00000000000000	-0.07579600000000	0.00000000000000	24.46804400000000	0.00000000000000	0.00000000000000	7.48717300000000	0.00000000000000	
10.73828900000000	-71.33325600000001	760.96257600000001	53.98146100000000	0.09972900000000	0.00000000000000	0.11253100000000	-7.41272500000000	109.17866200000000	10.80708200000000	0.39410800000000	0.00000000000000	-0.07602300000000	0.00000000000000	24.42882800000000	0.00000000000000	0.00000000000000	7.60739400000000	0.00000000000000	
10.73995200000000	-72.14455100000001	756.22506799999996	53.40724900000000	0.09896800000000	0.00000000000000	0.11235500000000	-6.58906700000000	114.32953800000000	10.75273800000000	0.39529200000000	0.00000000000000	-0.07625000000000	0.00000000000000	24.38758800000000	0.00000000000000	0.00000000000000	7.71321400000000	0.00000000000000	
10.74162400000000	-72.95535200000000	751.32022600000005	52.80773000000000	0.09820800000000	0.00000000000000	0.11217600000000	-5.72432600000000	119.63957400000000	10.67565700000000	0.39641700000000	0.00000000000000	-0.07647800000000	0.00000000000000	24.34408200000000	0.00000000000000	0.00000000000000	7.80739600000000	0.00000000000000	
